<svg width="255" height="50" viewBox="0 0 255 50" fill="none" xmlns="http://www.w3.org/2000/svg">
<path fill-rule="evenodd" clip-rule="evenodd" d="M245.914 37.9603C246.066 39.6994 247.457 41.913 249.868 41.913H251.277C251.825 41.913 252.273 41.4651 252.273 40.918V9.90667H252.266C252.239 9.38422 251.807 8.96578 251.277 8.96578H246.909C246.38 8.96578 245.948 9.38422 245.92 9.90667H245.914V12.4265C243.236 9.12669 239.016 7.75708 234.784 7.75708C225.164 7.75708 217.365 15.562 217.365 25.1903C217.365 34.8194 225.164 42.6244 234.784 42.6244V42.6253C239.016 42.6253 243.63 40.9819 245.914 37.9564V37.9603ZM234.8 36.523C228.682 36.523 223.722 31.4496 223.722 25.1903C223.722 18.9323 228.682 13.8587 234.8 13.8587C240.92 13.8587 245.88 18.9323 245.88 25.1903C245.88 31.4496 240.92 36.523 234.8 36.523Z" fill="#0D0E10"/>
<path fill-rule="evenodd" clip-rule="evenodd" d="M211.841 39.027L211.839 22.98H211.84C211.84 13.9343 206.137 7.83191 197.044 7.83191C192.704 7.83191 189.145 10.3438 187.889 12.5016C187.617 10.8144 186.722 9.04089 183.946 9.04089H182.532C181.984 9.04089 181.538 9.48923 181.538 10.0363V38.0382C181.538 38.0391 181.538 38.0411 181.538 38.0425V41.0505H181.543C181.572 41.572 182.004 41.9909 182.532 41.9909H186.901C186.968 41.9909 187.034 41.983 187.097 41.9707C187.126 41.965 187.153 41.9536 187.181 41.9457C187.214 41.9357 187.248 41.928 187.278 41.9152C187.317 41.8991 187.353 41.8775 187.389 41.8573C187.406 41.8464 187.425 41.8389 187.442 41.8275C187.486 41.7993 187.526 41.7655 187.564 41.7309C187.571 41.7245 187.578 41.7202 187.585 41.7143C187.628 41.6723 187.668 41.6259 187.703 41.5777C187.703 41.577 187.703 41.577 187.703 41.577C187.813 41.4268 187.879 41.2457 187.89 41.0505H187.895V22.7311C187.895 17.873 191.831 13.9343 196.686 13.9343C201.54 13.9343 205.476 17.873 205.476 22.7311L205.48 38.0436L205.481 38.0382C205.481 38.0518 205.483 38.0657 205.483 38.0802V41.0505H205.489C205.518 41.572 205.95 41.9909 206.478 41.9909H210.848C210.915 41.9909 210.98 41.983 211.043 41.9707C211.069 41.9659 211.093 41.9555 211.118 41.9484C211.154 41.938 211.191 41.9291 211.225 41.9152C211.261 41.9005 211.293 41.8798 211.327 41.8607C211.348 41.8491 211.37 41.8407 211.389 41.8275C211.43 41.8009 211.467 41.7689 211.503 41.7373C211.512 41.7286 211.523 41.7223 211.531 41.7136C211.573 41.6736 211.61 41.6305 211.643 41.5852C211.646 41.5818 211.648 41.5791 211.651 41.5757C211.759 41.4268 211.825 41.247 211.836 41.053C211.836 41.0516 211.836 41.0505 211.836 41.0505H211.842V39.0275L211.841 39.027Z" fill="#0D0E10"/>
<path fill-rule="evenodd" clip-rule="evenodd" d="M166.336 37.9603C166.489 39.6994 167.88 41.913 170.29 41.913H171.7C172.246 41.913 172.694 41.4651 172.694 40.918V9.90667H172.688C172.66 9.38422 172.228 8.96578 171.7 8.96578H167.33C166.802 8.96578 166.37 9.38422 166.341 9.90667H166.336V12.4265C163.659 9.12669 159.438 7.75708 155.205 7.75708C145.585 7.75708 137.786 15.562 137.786 25.1905C137.786 34.8194 145.585 42.6246 155.205 42.6246V42.6253C159.438 42.6253 164.051 40.9821 166.335 37.9564L166.336 37.9603ZM155.223 36.523C149.104 36.523 144.144 31.4498 144.144 25.1905C144.144 18.9323 149.104 13.8587 155.223 13.8587C161.341 13.8587 166.301 18.9323 166.301 25.1905C166.301 31.4498 161.341 36.523 155.223 36.523Z" fill="#0D0E10"/>
<path fill-rule="evenodd" clip-rule="evenodd" d="M111.947 33.5187C114.864 35.5409 118.048 36.5232 121.107 36.5232C124.022 36.5232 127.035 35.0109 127.035 32.3787C127.035 28.8646 120.469 28.3177 116.344 26.9146C112.217 25.5114 108.663 22.6107 108.663 17.9132C108.663 10.7252 115.063 7.75647 121.036 7.75647C124.821 7.75647 128.726 9.00542 131.257 10.7945C132.129 11.4557 131.598 12.2147 131.598 12.2147L129.182 15.6688C128.91 16.0579 128.435 16.394 127.753 15.9729C127.072 15.5521 124.68 13.8583 121.036 13.8583C117.392 13.8583 115.197 15.5426 115.197 17.6302C115.197 20.1337 118.05 20.9211 121.392 21.7743C127.215 23.3452 133.568 25.2337 133.568 32.3787C133.568 38.7118 127.649 42.6257 121.107 42.6257C116.15 42.6257 111.929 41.2114 108.389 38.6116C107.651 37.873 108.166 37.1871 108.166 37.1871L110.571 33.7505C111.06 33.108 111.677 33.3321 111.947 33.5187Z" fill="#0D0E10"/>
<path fill-rule="evenodd" clip-rule="evenodd" d="M95.1502 37.9603C95.303 39.6994 96.6941 41.913 99.1039 41.913H100.514C101.061 41.913 101.509 41.4651 101.509 40.918V9.90667H101.503C101.474 9.38422 101.042 8.96578 100.514 8.96578H96.1448C95.6164 8.96578 95.1848 9.38422 95.1555 9.90667H95.1502V12.4265C92.4732 9.12669 88.2525 7.75708 84.02 7.75708C74.3996 7.75708 66.6005 15.562 66.6005 25.1905C66.6005 34.8194 74.3996 42.6246 84.02 42.6246V42.6253C88.2525 42.6253 92.865 40.9821 95.1496 37.9564L95.1502 37.9603ZM84.0371 36.523C77.9184 36.523 72.9582 31.4498 72.9582 25.1905C72.9582 18.9323 77.9184 13.8587 84.0371 13.8587C90.1555 13.8587 95.1152 18.9323 95.1152 25.1905C95.1152 31.4498 90.1555 36.523 84.0371 36.523Z" fill="#0D0E10"/>
<path fill-rule="evenodd" clip-rule="evenodd" d="M42.1791 26.3761C35.705 26.3761 30.4564 31.6245 30.4564 38.0993C30.4564 44.5736 35.705 49.822 42.1791 49.822C48.6534 49.822 53.9018 44.5736 53.9018 38.0993C53.9018 31.6245 48.6534 26.3761 42.1791 26.3761ZM11.7227 26.3773C5.24848 26.3773 0 31.6245 0 38.0993C0 44.5736 5.24848 49.822 11.7227 49.822C18.1972 49.822 23.4459 44.5736 23.4459 38.0993C23.4459 31.6245 18.1972 26.3773 11.7227 26.3773ZM38.6734 11.7224C38.6734 18.1972 33.4252 23.4461 26.9509 23.4461C20.4765 23.4461 15.2283 18.1972 15.2283 11.7224C15.2283 5.249 20.4765 0 26.9509 0C33.4252 0 38.6734 5.249 38.6734 11.7224Z" fill="#F06A6A"/>
</svg>
