<svg width="172" height="50" viewBox="0 0 172 50" fill="none" xmlns="http://www.w3.org/2000/svg">
<g clip-path="url(#clip0_101_461)">
<path fill-rule="evenodd" clip-rule="evenodd" d="M22.0218 1.70408C24.2502 -0.568028 27.8948 -0.568028 30.122 1.70408L50.4855 22.4641C52.7115 24.7337 52.7115 28.4523 50.4855 30.7244L36.2431 45.2434C35.2014 46.3055 33.7617 46.9617 32.1731 46.9617H19.9732C18.526 46.9617 17.2053 46.418 16.1921 45.5202L1.66947 30.713C-0.55649 28.4422 -0.55649 24.7261 1.66947 22.454L22.0218 1.70408ZM29.5553 39.6029L27.524 41.674C27.3752 41.8257 27.1694 41.9193 26.9425 41.9193H25.2026C24.9955 41.9193 24.8083 41.8422 24.6619 41.7132L22.591 39.6004C22.2748 39.278 22.2748 38.7482 22.591 38.4233L25.494 35.4633C25.8127 35.1384 26.3336 35.1384 26.6498 35.4633L29.5553 38.4245C29.874 38.7482 29.874 39.278 29.5553 39.6029ZM29.5553 27.1828L21.4328 35.4646C21.2827 35.6163 21.0781 35.7099 20.8524 35.7099H19.1113C18.9054 35.7099 18.7157 35.6327 18.5719 35.5038L16.4997 33.3922C16.1822 33.0673 16.1822 32.5363 16.4997 32.2138L25.494 23.0432C25.8127 22.7195 26.3336 22.7195 26.651 23.0432L29.5553 26.0044C29.874 26.3281 29.874 26.8592 29.5553 27.1828ZM29.5553 14.7627L15.3426 29.2539C15.1914 29.4056 14.9867 29.4992 14.7611 29.4992H13.0212C12.8154 29.4992 12.6257 29.422 12.4818 29.2931L10.4084 27.1803C10.0909 26.8579 10.0909 26.3268 10.4084 26.0019L25.494 10.6218C25.8127 10.2969 26.3311 10.2969 26.6498 10.6218L29.5553 13.5843C29.874 13.908 29.874 14.439 29.5553 14.7627Z" fill="#26A943"/>
<path d="M148.987 19.0756V10.3589H142.823V41.9484H148.987V19.9999L156.543 40.5323C156.717 40.9736 156.802 41.4603 156.802 41.9484C156.802 43.3646 156.022 44.6453 154.416 44.8224C153.202 44.8679 151.988 44.7338 150.816 44.6011V49.78C152.073 49.9128 153.331 50 154.591 50C158.797 50 160.967 48.4954 162.314 44.8224L171.687 19.0756H165.308L160.404 34.7376H160.319L155.24 19.0756H148.987Z" fill="#2E2E2E"/>
<path d="M76.7717 10.5359C75.7313 10.4917 74.603 10.3589 73.5187 10.3589C68.4843 10.3589 66.0114 13.2353 66.0114 17.3042V19.0756H62.3223V23.2771H66.0114V41.9484H72.1723V23.2771H76.4259V19.0756H72.1723V17.7024C72.1723 15.8008 72.8235 15.0915 74.5144 15.0915C75.2536 15.0915 76.0337 15.1383 76.7717 15.2268V10.5359Z" fill="#2E2E2E"/>
<path fill-rule="evenodd" clip-rule="evenodd" d="M141.477 10.3589V41.9484H135.617V39.0264H135.532C134.099 41.5059 131.626 42.5667 128.719 42.5667C122.567 42.5667 119.282 37.7064 118.735 32.0381H102.596C102.771 36.0639 104.635 37.8328 108.108 37.8328C110.579 37.8328 112.578 36.2827 112.967 34.8703H118.393C116.654 40.3123 112.967 42.5667 107.89 42.5667C101.331 42.5667 97.0868 38.3057 96.5054 32.0381H80.638C80.8121 36.0639 82.6771 37.8328 86.1482 37.8328C88.6205 37.8328 90.6175 36.2827 91.0066 34.8703H96.4307C94.697 40.3123 91.0066 42.5667 85.9319 42.5667C78.856 42.5667 74.4735 37.6115 74.4735 30.5322C74.4735 23.6755 79.1169 18.4561 85.9319 18.4561C92.1127 18.4561 95.735 22.7448 96.638 28.1097C97.5976 22.4831 101.908 18.4561 107.89 18.4561C114.377 18.4561 118.046 23.1785 118.71 28.9113C119.183 23.3227 122.499 18.4561 128.59 18.4561C131.235 18.4561 133.839 19.6053 135.227 21.8611H135.316V10.3589H141.477ZM85.7584 23.1886C81.7645 23.1886 80.7687 26.2864 80.638 28.0565H90.6609C90.0964 24.869 88.7524 23.1886 85.7584 23.1886ZM102.596 28.0565C102.728 26.2864 103.725 23.1886 107.717 23.1886C110.71 23.1886 112.057 24.869 112.62 28.0565H102.596ZM135.532 30.445C135.532 26.7289 134.23 23.1886 130.237 23.1886C126.204 23.1886 124.814 26.7732 124.814 30.4892C124.814 34.0738 126.419 37.8328 130.237 37.8328C134.275 37.8328 135.532 34.2053 135.532 30.445Z" fill="#2E2E2E"/>
</g>
<defs>
<clipPath id="clip0_101_461">
<rect width="171.687" height="50" fill="white"/>
</clipPath>
</defs>
</svg>
