<svg width="185" height="50" viewBox="0 0 185 50" fill="none" xmlns="http://www.w3.org/2000/svg">
<g clip-path="url(#clip0_101_458)">
<path d="M35.4669 21.3142H19.9926C19.5934 21.3142 19.2696 21.6382 19.2696 22.0377V29.603C19.2696 30.0022 19.5934 30.3272 19.9926 30.3272H26.0291V39.7267C26.0291 39.7267 24.6735 40.1886 20.9265 40.1886C16.5054 40.1886 10.3296 38.5733 10.3296 24.9927C10.3296 11.4091 16.7603 9.62193 22.7979 9.62193C28.024 9.62193 30.2757 10.5422 31.7083 10.9854C32.1583 11.1235 32.5748 10.6752 32.5748 10.2757L34.3009 2.96587C34.3009 2.77914 34.2377 2.55406 34.0245 2.40107C33.4426 1.9862 29.8933 0 20.9265 0C10.5962 0 0 4.39494 0 25.5223C0 46.6503 12.1317 49.7988 22.3551 49.7988C30.8196 49.7988 35.9549 46.1813 35.9549 46.1813C36.1666 46.0644 36.1893 45.7687 36.1893 45.6331V22.0377C36.1893 21.6382 35.8659 21.3142 35.4669 21.3142Z" fill="#161312"/>
<path d="M115.213 2.53145C115.213 2.12884 114.894 1.80408 114.494 1.80408H105.782C105.384 1.80408 105.06 2.12884 105.06 2.53145C105.06 2.53337 105.063 19.3691 105.063 19.3691H91.4816V2.53145C91.4816 2.12884 91.161 1.80408 90.7625 1.80408H82.0503C81.6536 1.80408 81.3303 2.12884 81.3303 2.53145V48.123C81.3303 48.5252 81.6536 48.8528 82.0503 48.8528H90.7625C91.161 48.8528 91.4816 48.5252 91.4816 48.123V28.622H105.063C105.063 28.622 105.039 48.1215 105.039 48.123C105.039 48.5252 105.362 48.8528 105.76 48.8528H114.494C114.893 48.8528 115.212 48.5252 115.213 48.123V2.53145Z" fill="#161312"/>
<path d="M51.908 8.51423C51.908 5.37696 49.3927 2.84167 46.2896 2.84167C43.1896 2.84167 40.6721 5.37696 40.6721 8.51423C40.6721 11.6482 43.1896 14.1903 46.2896 14.1903C49.3927 14.1903 51.908 11.6482 51.908 8.51423Z" fill="#161312"/>
<path d="M51.2849 38.5058C51.2849 37.3377 51.2849 17.4605 51.2849 17.4605C51.2849 17.0609 50.9623 16.7343 50.5641 16.7343H41.8788C41.4803 16.7343 41.1239 17.1452 41.1239 17.5447C41.1239 17.5447 41.1239 42.869 41.1239 47.6963C41.1239 48.5825 41.6761 48.8457 42.3908 48.8457C42.3908 48.8457 46.0978 48.8457 50.2159 48.8457C51.0742 48.8457 51.2849 48.4245 51.2849 47.6822C51.2849 46.0659 51.2849 39.7346 51.2849 38.5058Z" fill="#161312"/>
<path d="M148.325 16.8029H139.679C139.283 16.8029 138.96 17.1296 138.96 17.5318V39.8868C138.96 39.8868 136.764 41.4938 133.646 41.4938C130.529 41.4938 129.701 40.0794 129.701 37.027C129.701 33.9705 129.701 17.5318 129.701 17.5318C129.701 17.1296 129.379 16.8029 128.982 16.8029H120.207C119.811 16.8029 119.487 17.1296 119.487 17.5318C119.487 17.5318 119.487 29.4368 119.487 38.503C119.487 47.5699 124.54 49.788 131.492 49.788C137.195 49.788 141.793 46.6374 141.793 46.6374C141.793 46.6374 142.012 48.2975 142.111 48.4944C142.21 48.6908 142.468 48.8892 142.747 48.8892L148.329 48.8647C148.725 48.8647 149.049 48.5371 149.049 48.1368L149.047 17.5318C149.047 17.1296 148.724 16.8029 148.325 16.8029Z" fill="#161312"/>
<path d="M168.546 41.4663C165.547 41.3749 163.513 40.0141 163.513 40.0141V25.5762C163.513 25.5762 165.52 24.3462 167.982 24.1264C171.095 23.8474 174.095 24.7879 174.095 32.215C174.095 40.0472 172.741 41.5926 168.546 41.4663ZM171.956 15.7787C167.045 15.7787 163.705 17.9696 163.705 17.9696V2.53145C163.705 2.12884 163.383 1.80408 162.986 1.80408H154.249C153.852 1.80408 153.529 2.12884 153.529 2.53145V48.123C153.529 48.5252 153.852 48.8528 154.25 48.8528C154.251 48.8528 160.31 48.8528 160.312 48.8528C160.585 48.8528 160.792 48.712 160.944 48.4657C161.095 48.2206 161.313 46.3635 161.313 46.3635C161.313 46.3635 164.885 49.7494 171.649 49.7494C179.589 49.7494 184.143 45.7215 184.143 31.6684C184.143 17.6151 176.87 15.7787 171.956 15.7787Z" fill="#161312"/>
<path d="M76.3258 16.7302H69.7902C69.7902 16.7302 69.7804 8.0978 69.7804 8.09587C69.7804 7.76918 69.612 7.60583 69.2344 7.60583H60.3279C59.9816 7.60583 59.7957 7.75807 59.7957 8.0909V17.0133C59.7957 17.0133 55.3325 18.0908 55.0307 18.1779C54.7301 18.265 54.5089 18.5421 54.5089 18.8728V24.4797C54.5089 24.8829 54.831 25.2081 55.2292 25.2081H59.7957C59.7957 25.2081 59.7957 31.0724 59.7957 38.6966C59.7957 48.7153 66.8233 49.6997 71.5657 49.6997C73.7322 49.6997 76.3242 49.0037 76.7522 48.8457C77.0111 48.7506 77.1614 48.4828 77.1614 48.192L77.1687 42.0242C77.1687 41.6221 76.8288 41.2963 76.4463 41.2963C76.0657 41.2963 75.0911 41.4512 74.088 41.4512C70.8779 41.4512 69.7902 39.9586 69.7902 38.0267C69.7902 36.096 69.7899 25.2081 69.7899 25.2081H76.3258C76.7242 25.2081 77.0466 24.8829 77.0466 24.4797V17.4567C77.0466 17.0542 76.7242 16.7302 76.3258 16.7302Z" fill="#161312"/>
</g>
<defs>
<clipPath id="clip0_101_458">
<rect width="184.356" height="50" fill="white"/>
</clipPath>
</defs>
</svg>
