<svg width="32" height="34" viewBox="0 0 32 34" fill="none" xmlns="http://www.w3.org/2000/svg">
<path d="M23.3616 10.2229L5.17981 0.424147C4.23497 -0.0850245 3.21046 -0.111046 2.32373 0.214395L17.8138 15.8075L23.3616 10.2229Z" fill="white"/>
<path d="M30.142 13.877L24.9047 11.0546L18.9985 17L24.9047 22.9455L30.1419 20.1229C32.6194 18.7878 32.6194 15.2122 30.142 13.877Z" fill="white"/>
<path d="M0.905692 1.17175C0.350163 1.78638 0 2.60692 0 3.54706V30.4528C0 31.393 0.350163 32.2136 0.905623 32.8282L16.6293 16.9999L0.905692 1.17175Z" fill="white"/>
<path d="M2.32373 33.7856C3.21039 34.111 4.23497 34.0851 5.17981 33.5759L23.3616 23.7771L17.8139 18.1925L2.32373 33.7856Z" fill="white"/>
</svg>
