<svg width="57.000000" height="57.000000" viewBox="0 0 57 57" fill="none" xmlns="http://www.w3.org/2000/svg" xmlns:xlink="http://www.w3.org/1999/xlink">
	<desc>
			Created with Pixso.
	</desc>
	<defs/>
	<path id="Polygon 2" d="M4.33 17.55C2.58 18.83 1.84 21.08 2.51 23.14L10.62 48.1C11.29 50.16 13.21 51.55 15.38 51.55L41.61 51.55C43.78 51.55 45.7 50.16 46.37 48.1L54.48 23.14C55.15 21.08 54.41 18.83 52.66 17.55L31.43 2.13C29.68 0.86 27.31 0.86 25.56 2.13L4.33 17.55ZM5.5 19.17C4.45 19.93 4.01 21.29 4.41 22.52L12.52 47.48C12.92 48.72 14.08 49.55 15.38 49.55L41.61 49.55C42.91 49.55 44.07 48.72 44.47 47.48L52.58 22.52C52.98 21.29 52.54 19.93 51.49 19.17L30.26 3.75C29.21 2.98 27.78 2.98 26.73 3.75L5.5 19.17Z" fill="#6A7080" fill-opacity="1.000000" fill-rule="evenodd"/>
	<circle id="Ellipse 2" cx="29.000000" cy="29.000000" r="5.000000" fill="#427EF6" fill-opacity="1.000000"/>
</svg>
