<svg width="28" height="35" viewBox="0 0 28 35" fill="none" xmlns="http://www.w3.org/2000/svg">
<path d="M23.3865 18.5983C23.3432 14.1648 26.9384 12.0384 27.0991 11.931C25.0786 8.92388 21.9307 8.51126 20.8104 8.46431C18.1336 8.18757 15.5847 10.0692 14.2267 10.0692C12.8715 10.0692 10.7734 8.50486 8.55369 8.5447C5.63366 8.5888 2.94218 10.2734 1.43954 12.9341C-1.59301 18.2888 0.663754 26.2246 3.61872 30.5706C5.06336 32.6948 6.78616 35.0852 9.04641 34.9977C11.2249 34.9101 12.0468 33.5635 14.6803 33.5635C17.3138 33.5635 18.0532 34.9977 20.3575 34.9528C22.7002 34.9094 24.1854 32.788 25.6181 30.6552C27.2766 28.1874 27.9595 25.7977 28 25.6768C27.949 25.6526 23.4334 23.8919 23.3865 18.5983Z" fill="white"/>
<path d="M19.0569 5.5881C20.2555 4.10695 21.0676 2.04885 20.8468 0C19.117 0.0711407 17.0231 1.17026 15.7811 2.64999C14.6685 3.96325 13.6956 6.05407 13.9563 8.06593C15.886 8.21817 17.8541 7.06641 19.0569 5.5881Z" fill="white"/>
</svg>
