<svg width="47" height="29" viewBox="0 0 47 29" fill="none" xmlns="http://www.w3.org/2000/svg">
<path d="M4.82139 29C3.70393 29 2.78737 28.7774 2.07169 28.3322C1.36857 27.8743 0.84751 27.2702 0.508506 26.5197C0.169502 25.7566 0 24.9171 0 24.0013V0H4.67072V22.0553C4.67072 23.0728 4.72722 23.7978 4.84022 24.2303C4.96578 24.65 5.19178 24.9044 5.51823 24.9934C5.84468 25.0697 6.31552 25.1079 6.93075 25.1079L6.51641 29H4.82139Z" fill="white"/>
<path d="M9.89497 28.6184V9.53948H14.5657V28.6184H9.89497ZM9.89497 6.63947V1.9079H14.5657V6.63947H9.89497Z" fill="white"/>
<path d="M20.0739 28.6184V13.4316H17.3995L17.8139 9.53948H20.0739V5.49474C20.0739 3.81579 20.5636 2.48026 21.5429 1.48816C22.5348 0.496053 23.9536 0 25.7993 0C26.402 0 26.9544 0.0317983 27.4567 0.0953947C27.9714 0.158991 28.436 0.241666 28.8503 0.343421L28.436 4.15921C28.2477 4.09562 28.0405 4.0511 27.8145 4.02566C27.5885 3.9875 27.306 3.96842 26.967 3.96842C26.289 3.96842 25.7491 4.15285 25.3473 4.52171C24.9455 4.89057 24.7446 5.49474 24.7446 6.33421V9.53948H28.888V13.4316H24.7446V28.6184H20.0739Z" fill="white"/>
<path d="M34.9089 17.648C35.3483 17.7625 35.7375 17.8388 36.0765 17.877C36.4281 17.9151 36.8173 17.9342 37.2442 17.9342C38.776 17.9342 39.9625 17.7943 40.8038 17.5145C41.6575 17.2219 42.2477 16.8531 42.5741 16.4079C42.9131 15.95 43.0826 15.4794 43.0826 14.9961C43.0826 14.4237 42.9257 14.0039 42.6118 13.7368C42.3104 13.4697 41.9652 13.3044 41.5759 13.2408C41.1993 13.1645 40.8979 13.1263 40.6719 13.1263C39.6549 13.1263 38.7823 13.4125 38.0541 13.9849C37.3258 14.5572 36.742 15.225 36.3025 15.9882C35.8757 16.7513 35.5931 17.4191 35.455 17.9914L35.116 20.3572C35.1286 21.5274 35.342 22.4623 35.7564 23.1618C36.1833 23.8487 36.7294 24.3447 37.3949 24.65C38.0603 24.9553 38.7509 25.1079 39.4666 25.1079C40.5966 25.1079 41.6638 24.9553 42.6683 24.65C43.6727 24.3447 44.5768 23.9759 45.3803 23.5434L44.853 27.55C44.0871 27.9697 43.1642 28.3195 42.0844 28.5993C41.0172 28.8664 39.8433 29 38.5626 29C36.6541 29 35.0846 28.6375 33.8542 27.9125C32.6237 27.1748 31.7134 26.189 31.1233 24.9553C30.5332 23.7088 30.2381 22.3224 30.2381 20.7961C30.2381 19.3333 30.4893 17.9151 30.9915 16.5414C31.4937 15.1678 32.2094 13.934 33.1385 12.8401C34.0676 11.7336 35.1851 10.8559 36.4909 10.2072C37.7967 9.55855 39.2531 9.23421 40.8603 9.23421C42.8566 9.23421 44.3759 9.74298 45.418 10.7605C46.4727 11.7654 47 13.1009 47 14.7671C47 15.9246 46.7552 16.9039 46.2655 17.7053C45.7758 18.5066 45.1041 19.1553 44.2503 19.6513C43.4091 20.1347 42.4486 20.4844 41.3688 20.7007C40.3015 20.9169 39.1778 21.025 37.9976 21.025C37.307 21.025 36.6667 20.9932 36.0765 20.9296C35.4864 20.866 35.003 20.7833 34.6264 20.6816L34.9089 17.648Z" fill="white"/>
<path d="M9.87354 6.6711V1.89238H14.5927V6.6711H9.87354Z" fill="#29E1E1"/>
</svg>
