<svg width="224" height="50" viewBox="0 0 224 50" fill="none" xmlns="http://www.w3.org/2000/svg">
<path d="M38.2913 8.58412C29.7688 7.97195 20.2758 7.97197 11.7532 8.58412C9.96913 8.71227 8.61738 10.0783 8.48325 11.7481C8.05305 17.103 7.99582 25.1257 8.39028 30.4752C8.52058 32.2422 10.0719 33.7588 12.1707 33.7588H18.75V41.875L12.1841 41.8703C6.1608 41.8703 0.7543 37.4058 0.287282 31.0727C-0.137893 25.307 -0.0791684 16.867 0.384327 11.0975C0.848835 5.31532 5.4984 0.887462 11.1711 0.480003C20.0813 -0.159999 29.9633 -0.160002 38.8735 0.480002C44.5462 0.887458 49.1958 5.31532 49.6603 11.0975C50.1238 16.867 50.1035 25.307 49.6783 31.0727C49.2113 37.4058 43.8173 41.8885 37.794 41.8885L31.296 41.8838L18.75 50V41.875L31.296 33.7588H37.795C39.8937 33.7588 41.445 32.2422 41.5753 30.4752C41.9698 25.1257 41.9915 17.103 41.5613 11.7481C41.4272 10.0783 40.0755 8.71227 38.2913 8.58412Z" fill="#FE5000"/>
<path d="M62.4365 35.674H82.0715V30.744H68.3865V5.92407H62.4365V35.674Z" fill="#1B1B20"/>
<path d="M84.9173 35.6744H90.6973V13.5744H84.9173V35.6744ZM84.4498 7.79439C84.4498 9.70689 85.8523 11.1519 87.8073 11.1519C89.7623 11.1519 91.1648 9.70689 91.1648 7.79439C91.1648 5.88189 89.7623 4.43689 87.8073 4.43689C85.8523 4.43689 84.4498 5.88189 84.4498 7.79439Z" fill="#1B1B20"/>
<path d="M113.361 13.5742H107.581L102.821 29.7667L98.0606 13.5742H92.2806L99.8031 35.6742H105.838L113.361 13.5742Z" fill="#1B1B20"/>
<path d="M123.675 36.184C128.562 36.184 132.515 33.2515 133.28 29.214H128.222C127.67 30.744 126.14 32.019 123.675 32.019C120.317 32.019 119 29.7665 119 27.174V26.6215H133.45V22.754C133.45 17.4415 130.135 13.064 123.59 13.064C116.96 13.064 113.39 17.314 113.39 23.3065V26.324C113.39 32.529 117.427 36.184 123.675 36.184ZM119 22.329C119 19.354 120.275 17.144 123.59 17.144C126.692 17.144 128.137 19.2265 128.137 21.989V22.5415H119V22.329Z" fill="#1B1B20"/>
<path d="M148.812 36.2692C156.334 36.2692 160.967 31.1692 161.264 25.0917H155.739C155.357 28.4492 153.232 31.3817 148.812 31.3817C143.839 31.3817 141.714 27.9817 141.714 23.2217V18.3767C141.714 13.6167 143.839 10.2167 148.812 10.2167C153.232 10.2167 155.357 13.1492 155.739 16.5067H161.264C160.967 10.4292 156.334 5.32922 148.812 5.32922C139.844 5.32922 135.807 11.0667 135.807 18.6742V22.9242C135.807 30.5317 139.844 36.2692 148.812 36.2692Z" fill="#1B1B20"/>
<path d="M164.406 35.6744H170.187V22.5844C170.187 19.6094 171.843 18.0794 174.437 18.0794C177.242 18.0794 178.473 19.9069 178.473 22.4569V35.6744H184.253V21.5219C184.253 16.2943 181.237 13.0643 176.433 13.0643C173.587 13.0643 171.333 14.2968 170.187 16.2093V4.64929H164.406V35.6744Z" fill="#1B1B20"/>
<path d="M195.287 36.184C197.837 36.184 200.642 35.1215 201.662 33.634V35.674H207.228V21.564C207.228 16.4215 203.447 13.064 197.922 13.064C193.162 13.064 189.718 15.359 188.443 19.6515H193.798C194.393 18.4615 195.627 17.569 197.623 17.569C200.003 17.569 201.448 19.099 201.448 21.139V24.1565C200.428 23.3065 198.473 22.2865 195.838 22.2865C190.527 22.2865 186.913 24.4965 186.913 29.299C186.913 33.5915 190.313 36.184 195.287 36.184ZM196.773 32.359C194.352 32.359 192.523 31.169 192.523 29.129C192.523 27.089 194.223 25.984 196.943 25.984C199.537 25.984 201.448 27.1315 201.448 29.0865C201.448 30.9565 199.323 32.359 196.773 32.359Z" fill="#1B1B20"/>
<path d="M218.03 35.674H222.025V30.999H219.687C218.157 30.999 217.605 30.404 217.605 28.959V18.249H222.322V13.5741H217.605V7.53906H211.782V13.5741H208.637V18.249H211.782V29.384C211.782 33.294 213.78 35.674 218.03 35.674Z" fill="#1B1B20"/>
</svg>
