<svg width="177" height="50" viewBox="0 0 177 50" fill="none" xmlns="http://www.w3.org/2000/svg">
<path d="M38.013 9.47C37.9789 9.22164 37.7619 9.08385 37.5818 9.06885C37.4031 9.05385 33.902 9.00066 33.902 9.00066C33.902 9.00066 30.9739 6.15717 30.6846 5.86791C30.3954 5.57866 29.8305 5.66598 29.6108 5.73147C29.6081 5.73284 29.061 5.90202 28.14 6.18719C27.9858 5.68781 27.7593 5.07381 27.4359 4.45709C26.3935 2.46775 24.8667 1.41578 23.022 1.41306C23.0193 1.41306 23.0179 1.41306 23.0152 1.41306C22.8869 1.41306 22.76 1.42534 22.6318 1.43625C22.5772 1.37075 22.5226 1.30663 22.4653 1.24386C21.6616 0.384275 20.6316 -0.034605 19.3967 0.00223452C17.0144 0.070456 14.6417 1.791 12.7179 4.84732C11.3643 6.99766 10.3342 9.69926 10.0422 11.7909C7.30652 12.6382 5.39358 13.2303 5.35129 13.244C3.97048 13.6779 3.92683 13.7202 3.74672 15.0219C3.61301 16.0056 0 43.9437 0 43.9437L30.278 49.1803L43.4011 45.918C43.4011 45.918 38.0471 9.71836 38.013 9.47ZM26.6241 6.65655C25.9269 6.87213 25.1341 7.11773 24.2745 7.3838C24.2568 6.17764 24.1135 4.49939 23.5514 3.049C25.3593 3.39148 26.2489 5.43675 26.6241 6.65655ZM22.6904 7.87498C21.1036 8.36615 19.3721 8.90238 17.6352 9.44C18.1237 7.56935 19.0502 5.70691 20.1881 4.48575C20.6111 4.03139 21.2032 3.52519 21.9045 3.23593C22.5635 4.61127 22.7068 6.55831 22.6904 7.87498ZM19.4444 1.5877C20.0039 1.57542 20.4746 1.69822 20.8771 1.96292C20.2331 2.2972 19.6109 2.77748 19.027 3.40375C17.5138 5.02743 16.354 7.54752 15.8915 9.97894C14.4493 10.4251 13.0384 10.8631 11.7395 11.2643C12.5596 7.43701 15.7673 1.69412 19.4444 1.5877Z" fill="#95BF47"/>
<path d="M37.5832 9.07035C37.4045 9.05535 33.9034 9.00215 33.9034 9.00215C33.9034 9.00215 30.9753 6.15868 30.6861 5.86942C30.5783 5.76163 30.4323 5.70568 30.2794 5.6825L30.2808 49.1791L43.4025 45.9181C43.4025 45.9181 38.0485 9.71986 38.0144 9.47149C37.9802 9.22313 37.762 9.08535 37.5832 9.07035Z" fill="#5E8E3E"/>
<path d="M23.0055 15.8173L21.4815 21.5192C21.4815 21.5192 19.7814 20.7456 17.7662 20.8725C14.8108 21.0594 14.7794 22.9232 14.8095 23.3912C14.9705 25.9413 21.6793 26.498 22.0559 32.4715C22.352 37.1706 19.5631 40.3852 15.5449 40.6389C10.7216 40.9432 8.06641 38.0984 8.06641 38.0984L9.08841 33.7513C9.08841 33.7513 11.7613 35.768 13.9007 35.6329C15.2979 35.5442 15.7973 34.4076 15.7468 33.6039C15.5367 30.2775 10.0735 30.4739 9.72832 25.008C9.43767 20.4086 12.4586 15.7477 19.1237 15.3275C21.6916 15.1624 23.0055 15.8173 23.0055 15.8173Z" fill="white"/>
<path d="M60.6821 27.7571C59.1732 26.9384 58.3977 26.2482 58.3977 25.2995C58.3977 24.0924 59.4749 23.3169 61.1571 23.3169C63.1153 23.3169 64.8637 24.1357 64.8637 24.1357L66.2428 19.9107C66.2428 19.9107 64.9747 18.9187 61.2423 18.9187C56.0483 18.9187 52.4486 21.8932 52.4486 26.0749C52.4486 28.4459 54.1294 30.2567 56.3718 31.549C58.1825 32.583 58.8294 33.3165 58.8294 34.3937C58.8294 35.5143 57.9241 36.4196 56.2433 36.4196C53.7383 36.4196 51.3727 35.1258 51.3727 35.1258L49.9071 39.3508C49.9071 39.3508 52.0927 40.8165 55.7696 40.8165C61.1151 40.8165 64.9518 38.187 64.9518 33.445C64.9504 30.9035 63.0111 29.0928 60.6821 27.7571Z" fill="black"/>
<path d="M81.9779 18.8766C79.3483 18.8766 77.2791 20.1271 75.6849 22.0231L75.5982 21.9797L77.8826 10.0396H71.9335L66.1576 40.4293H72.1067L74.0893 30.0414C74.8647 26.1182 76.8906 23.7052 78.788 23.7052C80.1237 23.7052 80.642 24.6105 80.642 25.9043C80.642 26.7231 80.5554 27.715 80.3835 28.5338L78.1424 40.4307H84.0919L86.4189 28.1454C86.6779 26.8516 86.8509 25.3008 86.8509 24.2655C86.8484 20.9025 85.0812 18.8766 81.9779 18.8766Z" fill="black"/>
<path d="M100.298 18.8766C93.141 18.8766 88.4009 25.3427 88.4009 32.5409C88.4009 37.153 91.2451 40.8597 96.591 40.8597C103.617 40.8597 108.359 34.5668 108.359 27.1954C108.359 22.9284 105.858 18.8766 100.298 18.8766ZM97.3665 36.2922C95.3402 36.2922 94.4779 34.5681 94.4779 32.4123C94.4779 29.0074 96.246 23.4468 99.4787 23.4468C101.591 23.4468 102.28 25.2574 102.28 27.0249C102.28 30.6882 100.514 36.2922 97.3665 36.2922Z" fill="black"/>
<path d="M123.575 18.8766C119.56 18.8766 117.281 22.4114 117.281 22.4114H117.196L117.541 19.2217H112.282C112.024 21.3775 111.548 24.6525 111.075 27.1101L106.937 48.878H112.886L114.523 40.0842H114.653C114.653 40.0842 115.874 40.8597 118.145 40.8597C125.128 40.8597 129.697 33.7048 129.697 26.4619C129.697 22.4548 127.929 18.8766 123.575 18.8766ZM117.885 36.3775C116.341 36.3775 115.427 35.5154 115.427 35.5154L116.419 29.9548C117.109 26.2481 119.048 23.7904 121.118 23.7904C122.929 23.7904 123.489 25.4713 123.489 27.0668C123.489 30.9034 121.204 36.3775 117.885 36.3775Z" fill="black"/>
<path d="M138.188 10.3416C136.293 10.3416 134.784 11.8505 134.784 13.7897C134.784 15.5572 135.904 16.7643 137.585 16.7643H137.671C139.525 16.7643 141.12 15.5138 141.163 13.3161C141.163 11.592 139.999 10.3416 138.188 10.3416Z" fill="black"/>
<path d="M129.87 40.4294H135.817L139.87 19.3517H133.878L129.87 40.4294Z" fill="black"/>
<path d="M155.001 19.3085H150.862L151.077 18.3165C151.422 16.2906 152.629 14.4799 154.612 14.4799C155.67 14.4799 156.508 14.7817 156.508 14.7817L157.672 10.1263C157.672 10.1263 156.638 9.60938 154.438 9.60938C152.326 9.60938 150.216 10.2129 148.62 11.5919C146.593 13.3161 145.645 15.8156 145.171 18.3165L145 19.3085H142.24L141.378 23.792H144.138L140.991 40.4308H146.94L150.087 23.792H154.182L155.001 19.3085Z" fill="black"/>
<path d="M169.311 19.3517C169.311 19.3517 165.593 28.7206 163.923 33.8348H163.836C163.723 32.1878 162.371 19.3517 162.371 19.3517H156.12L159.699 38.7053C159.786 39.1357 159.743 39.3955 159.57 39.6972C158.879 41.033 157.716 42.3267 156.336 43.2754C155.216 44.0941 153.966 44.6111 152.975 44.9562L154.612 49.9999C155.82 49.7415 158.319 48.7495 160.431 46.7669C163.148 44.224 165.647 40.3008 168.233 34.9553L175.518 19.3503H169.311V19.3517Z" fill="black"/>
</svg>
