<svg width="200" height="50" viewBox="0 0 200 50" fill="none" xmlns="http://www.w3.org/2000/svg">
<g clip-path="url(#clip0_101_465)">
<path d="M63.0526 39.5644L65.4934 33.8594C68.166 35.8386 71.6518 36.8862 75.1384 36.8862C77.695 36.8862 79.3218 35.897 79.3218 34.3836C79.2634 30.192 63.9242 33.452 63.8076 22.9136C63.7492 17.5578 68.5142 13.4245 75.255 13.4245C79.2634 13.4245 83.2734 14.4145 86.12 16.6853L83.8392 22.512C81.22 20.8278 77.985 19.6537 74.906 19.6537C72.8142 19.6537 71.4192 20.6428 71.4192 21.9244C71.4776 26.0578 86.9342 23.787 87.1084 33.8594C87.1084 39.332 82.4592 43.1744 75.835 43.1744C70.955 43.1744 66.481 42.0104 63.0518 39.5644H63.0526ZM160.243 31.7936C159.626 32.8884 158.73 33.7994 157.646 34.4336C156.561 35.0676 155.328 35.4018 154.072 35.402C150.157 35.402 146.983 32.222 146.983 28.2994C146.983 24.377 150.157 21.197 154.072 21.197C155.328 21.197 156.561 21.5314 157.646 22.1654C158.73 22.7994 159.626 23.7106 160.243 24.8054L167.028 21.0386C164.487 16.4962 159.638 13.4245 154.072 13.4245C145.873 13.4245 139.226 20.0836 139.226 28.2994C139.226 36.5144 145.873 43.1744 154.072 43.1744C159.638 43.1744 164.487 40.1028 167.028 35.5604L160.243 31.7936ZM91.5118 42.592H99.995V1.04199H91.5126L91.5118 42.592ZM171.313 1.04199V42.592H179.796V30.1436L189.848 42.592H200.692L187.908 27.8036L199.762 14.0045H189.383L179.796 25.477V1.04199H171.313ZM126.131 14.0062V17.3837C124.737 15.0545 121.308 13.4245 117.706 13.4245C110.268 13.4245 104.4 20.0036 104.4 28.2704C104.4 36.537 110.268 43.1744 117.706 43.1744C121.308 43.1744 124.737 41.5444 126.131 39.2154V42.592H134.614V14.0062H126.131ZM126.131 31.8512C124.911 33.8886 122.354 35.4012 119.508 35.4012C115.592 35.4012 112.418 32.222 112.418 28.2994C112.418 24.377 115.592 21.197 119.508 21.197C122.354 21.197 124.911 22.7686 126.131 24.8636V31.8512Z" fill="black"/>
<path d="M18.2517 0.123657C15.5025 0.123657 13.2742 2.35698 13.2742 5.11116C13.2735 5.76546 13.4017 6.4135 13.6515 7.01826C13.9013 7.62302 14.2678 8.17264 14.73 8.63578C15.1922 9.09892 15.7411 9.46648 16.3453 9.71748C16.9496 9.96848 17.5974 10.098 18.2517 10.0987H23.23V5.11116C23.2312 3.78964 22.7072 2.5218 21.7736 1.58648C20.84 0.651168 19.5732 0.124983 18.2517 0.123657ZM18.2517 13.4237H4.9775C2.22834 13.4237 0 15.657 0 18.412C0 21.1661 2.22834 23.3995 4.9775 23.3995H18.2525C21.0008 23.3995 23.23 21.1661 23.23 18.412C23.23 15.657 21.0008 13.4237 18.2517 13.4237Z" fill="#2FBDEE"/>
<path d="M49.7784 18.412C49.7784 15.657 47.5492 13.4237 44.8 13.4237C42.0508 13.4237 39.8226 15.657 39.8226 18.412V23.3995H44.8C46.1216 23.3981 47.3884 22.8719 48.322 21.9367C49.2556 21.0013 49.7794 19.7335 49.7784 18.412ZM36.5042 18.412V5.11116C36.5052 3.78964 35.9814 2.5218 35.0478 1.58648C34.1142 0.651168 32.8474 0.124983 31.5258 0.123657C28.7766 0.123657 26.5484 2.35698 26.5484 5.11116V18.4112C26.5484 21.1669 28.7766 23.4003 31.5258 23.4003C32.8474 23.3989 34.1142 22.8727 35.0478 21.9375C35.9814 21.0021 36.5052 19.7343 36.5042 18.4128" fill="#29AD72"/>
<path d="M31.5258 50.0004C32.8474 49.9992 34.1142 49.473 35.0478 48.5376C35.9814 47.6024 36.5052 46.3344 36.5042 45.013C36.5052 43.6914 35.9814 42.4236 35.0478 41.4882C34.1142 40.553 32.8474 40.0268 31.5258 40.0254H26.5484V45.013C26.5484 47.7672 28.7766 50.0004 31.5258 50.0004ZM31.5258 36.7004H44.8008C47.5492 36.7004 49.7784 34.4672 49.7784 31.7122C49.7794 30.3906 49.2556 29.1228 48.322 28.1874C47.3884 27.2522 46.1216 26.726 44.8 26.7246H31.5258C28.7766 26.7246 26.5484 28.958 26.5484 31.7122C26.5476 32.3664 26.676 33.0144 26.9258 33.6192C27.1754 34.224 27.542 34.7736 28.0042 35.2368C28.4664 35.6998 29.0152 36.0674 29.6196 36.3184C30.2238 36.5694 30.8716 36.699 31.5258 36.6996" fill="#E9A929"/>
<path d="M2.51153e-06 31.7122C-0.000654428 32.3664 0.127571 33.0144 0.377358 33.6192C0.627146 34.224 0.993602 34.7736 1.45581 35.2368C1.91801 35.6998 2.4669 36.0674 3.07116 36.3184C3.67542 36.5694 4.3232 36.699 4.9775 36.6996C6.29902 36.6982 7.5659 36.172 8.4995 35.2368C9.43308 34.3014 9.95694 33.0336 9.95584 31.7122V26.7246H4.9775C2.22834 26.7246 2.51153e-06 28.958 2.51153e-06 31.7122ZM13.2742 31.7122V45.0122C13.2742 47.7672 15.5025 50.0004 18.2517 50.0004C19.5732 49.9992 20.84 49.473 21.7736 48.5376C22.7072 47.6024 23.2312 46.3344 23.23 45.013V31.7122C23.2306 31.0578 23.1024 30.4096 22.8526 29.8048C22.6028 29.2 22.2362 28.6504 21.774 28.1872C21.3116 27.724 20.7626 27.3566 20.1582 27.1056C19.5539 26.8546 18.9061 26.7252 18.2517 26.7246C15.5025 26.7246 13.2742 28.958 13.2742 31.7122Z" fill="#DC1C50"/>
</g>
<defs>
<clipPath id="clip0_101_465">
<rect width="200" height="50" fill="white"/>
</clipPath>
</defs>
</svg>
