<svg width="168" height="50" viewBox="0 0 168 50" fill="none" xmlns="http://www.w3.org/2000/svg">
<mask id="mask0_101_463" style="mask-type:alpha" maskUnits="userSpaceOnUse" x="0" y="0" width="167" height="50">
<path d="M25.2045 0C39.0239 0 50.1793 11.1667 50.1793 25C50.1793 38.8333 39.0239 50 25.2045 50C11.385 50 0.229492 38.8333 0.229492 25C0.229492 11.1667 11.385 0 25.2045 0ZM25.2045 6.66667C15.0479 6.66667 6.88948 14.8333 6.88948 25C6.88948 35.1667 15.0479 43.3333 25.2045 43.3333C35.3609 43.3333 43.5193 35.1667 43.5193 25C43.5193 14.8333 35.3609 6.66667 25.2045 6.66667ZM67.6618 9.83333C67.9948 9.66667 68.3278 10 68.3278 10.1667V17.3333H81.6478C81.8142 17.3333 82.1473 17.6667 82.1473 17.8333L83.1462 22L84.1453 26.1667L84.3117 26.6667L84.4782 26.1667L86.9757 17.8333C86.9757 17.5 87.3087 17.3333 87.4753 17.3333H94.1353C94.3017 17.3333 94.6347 17.6667 94.6347 17.8333L97.2987 26.6667L97.4653 26.1667L99.6296 17.8333C99.6296 17.5 99.9626 17.3333 100.129 17.3333H117.112C117.279 17.3333 117.445 17.6667 117.445 17.8333V40C117.445 40.3333 117.112 40.5 116.946 40.5H108.454C108.121 40.5 107.955 40.1667 107.955 40L107.954 19L101.628 40C101.628 40.2917 101.373 40.4558 101.197 40.4922L101.128 40.5H94.1353C93.9687 40.5 93.6357 40.1667 93.6357 40L92.3037 35.5L90.8053 30.6667L87.8082 40C87.8082 40.3333 87.4753 40.5 87.3087 40.5H80.3157C80.1492 40.5 79.8162 40.1667 79.8162 40L73.4893 19V24.3333C73.4893 24.6667 73.1562 24.8333 72.9898 24.8333H68.1612V30.5C68.1612 32.1667 68.9937 32.8333 70.4923 32.8333C71.1582 32.8333 71.9907 32.6667 72.8232 32.3333C72.9898 32.1667 73.3228 32.3333 73.3228 32.6667V39.3333C71.8243 40.1667 69.6598 40.6667 67.3289 40.6667C61.8343 40.6667 58.8373 38.1667 58.8373 32.6667V24.8333H56.6728C56.3398 24.8333 56.1734 24.5 56.1734 24.3333V18C56.1734 17.6667 56.5064 17.5 56.6728 17.5H58.8373V13C58.8373 12.6667 59.0039 12.5 59.3368 12.5L67.6618 9.83333ZM153.576 16.8333C160.901 16.8333 166.229 22.3333 166.229 28.6667C166.229 35 160.901 40.5 153.409 40.5C146.083 40.5 140.755 35 140.755 28.6667C140.755 22.3333 146.083 16.8333 153.576 16.8333ZM128.268 9.83333C128.601 9.83333 128.767 10 128.767 10.1667V39.8333C128.767 40.1667 128.434 40.3333 128.268 40.3333H119.776C119.443 40.3333 119.277 40 119.277 39.8333V10.3333C119.277 10 119.61 9.83333 119.776 9.83333H128.268ZM139.423 17.3333C139.756 17.3333 139.923 17.6667 139.923 17.8333V39.6667C139.923 40 139.589 40.1667 139.423 40.1667H130.932C130.599 40.1667 130.432 39.8333 130.432 39.6667V17.8333C130.432 17.5 130.765 17.3333 130.932 17.3333H139.423ZM19.0439 26C21.8745 26 24.2054 28.3333 24.2054 31.1667C24.2054 34 21.8745 36.3333 19.0439 36.3333C16.2134 36.3333 13.8824 34 13.8824 31.1667C13.8824 28.3333 16.2134 26 19.0439 26ZM31.365 26C34.1954 26 36.5264 28.3333 36.5264 31.1667C36.5264 34 34.1954 36.3333 31.365 36.3333C28.5343 36.3333 26.2034 34 26.2034 31.1667C26.2034 28.3333 28.5343 26 31.365 26ZM153.576 24.8333C151.411 24.8333 149.912 26.6667 149.912 28.8333C149.912 31 151.577 32.8333 153.576 32.8333C155.74 32.8333 157.239 31 157.239 28.8333C157.239 26.5 155.574 24.6667 153.576 24.8333ZM31.365 13.6667C34.1954 13.6667 36.5264 16 36.5264 18.8333C36.5264 21.6667 34.1954 24 31.365 24C28.5343 24 26.2034 21.6667 26.2034 18.8333C26.2034 16 28.5343 13.6667 31.365 13.6667ZM19.0439 13.6667C21.8745 13.6667 24.2054 16 24.2054 18.8333C24.2054 21.6667 21.8745 24 19.0439 24C16.2134 24 13.8824 21.6667 13.8824 18.8333C13.8824 16 16.2134 13.6667 19.0439 13.6667ZM117.279 9.83333C117.445 9.83333 117.612 10 117.778 10.1667V15.5C117.778 15.8333 117.445 16 117.279 16H108.454C108.121 16 107.955 15.6667 107.955 15.5V10.3333C107.955 10 108.288 9.83333 108.454 9.83333H117.279ZM139.589 9.83333C139.923 9.83333 140.089 10 140.089 10.1667V15.5C140.089 15.8333 139.756 16 139.589 16H130.765C130.432 16 130.266 15.6667 130.266 15.5V10.3333C130.266 10 130.599 9.83333 130.765 9.83333H139.589Z" fill="white"/>
</mask>
<g mask="url(#mask0_101_463)">
<path d="M25.2045 0C39.0239 0 50.1793 11.1667 50.1793 25C50.1793 38.8333 39.0239 50 25.2045 50C11.385 50 0.229492 38.8333 0.229492 25C0.229492 11.1667 11.385 0 25.2045 0ZM25.2045 6.66667C15.0479 6.66667 6.88948 14.8333 6.88948 25C6.88948 35.1667 15.0479 43.3333 25.2045 43.3333C35.3609 43.3333 43.5193 35.1667 43.5193 25C43.5193 14.8333 35.3609 6.66667 25.2045 6.66667ZM67.6618 9.83333C67.9948 9.66667 68.3278 10 68.3278 10.1667V17.3333H81.6478C81.8142 17.3333 82.1473 17.6667 82.1473 17.8333L83.1462 22L84.1453 26.1667L84.3117 26.6667L84.4782 26.1667L86.9757 17.8333C86.9757 17.5 87.3087 17.3333 87.4753 17.3333H94.1353C94.3017 17.3333 94.6347 17.6667 94.6347 17.8333L97.2987 26.6667L97.4653 26.1667L99.6296 17.8333C99.6296 17.5 99.9626 17.3333 100.129 17.3333H117.112C117.279 17.3333 117.445 17.6667 117.445 17.8333V40C117.445 40.3333 117.112 40.5 116.946 40.5H108.454C108.121 40.5 107.955 40.1667 107.955 40L107.954 19L101.628 40C101.628 40.2917 101.373 40.4558 101.197 40.4922L101.128 40.5H94.1353C93.9687 40.5 93.6357 40.1667 93.6357 40L92.3037 35.5L90.8053 30.6667L87.8082 40C87.8082 40.3333 87.4753 40.5 87.3087 40.5H80.3157C80.1492 40.5 79.8162 40.1667 79.8162 40L73.4893 19V24.3333C73.4893 24.6667 73.1562 24.8333 72.9898 24.8333H68.1612V30.5C68.1612 32.1667 68.9937 32.8333 70.4923 32.8333C71.1582 32.8333 71.9907 32.6667 72.8232 32.3333C72.9898 32.1667 73.3228 32.3333 73.3228 32.6667V39.3333C71.8243 40.1667 69.6598 40.6667 67.3289 40.6667C61.8343 40.6667 58.8373 38.1667 58.8373 32.6667V24.8333H56.6728C56.3398 24.8333 56.1734 24.5 56.1734 24.3333V18C56.1734 17.6667 56.5064 17.5 56.6728 17.5H58.8373V13C58.8373 12.6667 59.0039 12.5 59.3368 12.5L67.6618 9.83333ZM153.576 16.8333C160.901 16.8333 166.229 22.3333 166.229 28.6667C166.229 35 160.901 40.5 153.409 40.5C146.083 40.5 140.755 35 140.755 28.6667C140.755 22.3333 146.083 16.8333 153.576 16.8333ZM128.268 9.83333C128.601 9.83333 128.767 10 128.767 10.1667V39.8333C128.767 40.1667 128.434 40.3333 128.268 40.3333H119.776C119.443 40.3333 119.277 40 119.277 39.8333V10.3333C119.277 10 119.61 9.83333 119.776 9.83333H128.268ZM139.423 17.3333C139.756 17.3333 139.923 17.6667 139.923 17.8333V39.6667C139.923 40 139.589 40.1667 139.423 40.1667H130.932C130.599 40.1667 130.432 39.8333 130.432 39.6667V17.8333C130.432 17.5 130.765 17.3333 130.932 17.3333H139.423ZM19.0439 26C21.8745 26 24.2054 28.3333 24.2054 31.1667C24.2054 34 21.8745 36.3333 19.0439 36.3333C16.2134 36.3333 13.8824 34 13.8824 31.1667C13.8824 28.3333 16.2134 26 19.0439 26ZM31.365 26C34.1954 26 36.5264 28.3333 36.5264 31.1667C36.5264 34 34.1954 36.3333 31.365 36.3333C28.5343 36.3333 26.2034 34 26.2034 31.1667C26.2034 28.3333 28.5343 26 31.365 26ZM153.576 24.8333C151.411 24.8333 149.912 26.6667 149.912 28.8333C149.912 31 151.577 32.8333 153.576 32.8333C155.74 32.8333 157.239 31 157.239 28.8333C157.239 26.5 155.574 24.6667 153.576 24.8333ZM31.365 13.6667C34.1954 13.6667 36.5264 16 36.5264 18.8333C36.5264 21.6667 34.1954 24 31.365 24C28.5343 24 26.2034 21.6667 26.2034 18.8333C26.2034 16 28.5343 13.6667 31.365 13.6667ZM19.0439 13.6667C21.8745 13.6667 24.2054 16 24.2054 18.8333C24.2054 21.6667 21.8745 24 19.0439 24C16.2134 24 13.8824 21.6667 13.8824 18.8333C13.8824 16 16.2134 13.6667 19.0439 13.6667ZM117.279 9.83333C117.445 9.83333 117.612 10 117.778 10.1667V15.5C117.778 15.8333 117.445 16 117.279 16H108.454C108.121 16 107.955 15.6667 107.955 15.5V10.3333C107.955 10 108.288 9.83333 108.454 9.83333H117.279ZM139.589 9.83333C139.923 9.83333 140.089 10 140.089 10.1667V15.5C140.089 15.8333 139.756 16 139.589 16H130.765C130.432 16 130.266 15.6667 130.266 15.5V10.3333C130.266 10 130.599 9.83333 130.765 9.83333H139.589Z" fill="#F22F46"/>
</g>
</svg>
