<svg width="200" height="50" viewBox="0 0 200 50" fill="none" xmlns="http://www.w3.org/2000/svg">
<g clip-path="url(#clip0_101_466)">
<path d="M64.58 19.5524C64.58 15.9862 61.0912 12.1987 55.0538 12.1987C48.2742 12.1987 40.8264 17.1422 39.6882 27.0044C38.5253 36.9651 44.7606 41.392 51.0454 41.392C57.3302 41.392 60.6211 38.9572 63.9861 35.7108C61.0912 32.0954 57.3549 33.7678 56.6374 34.1367C55.8456 34.5303 54.8311 35.0713 52.7527 35.0713C50.3279 35.0713 47.8535 33.9892 47.8535 29.4884C63.3923 27.9636 64.58 23.1185 64.58 19.5524ZM56.8848 20.1426C56.7858 21.2494 56.3405 23.1431 48.4721 24.2007C50.1299 18.3473 53.297 17.9046 54.7569 17.9046C56.1178 17.9046 56.9838 18.9621 56.8848 20.1426ZM30.558 21.1018C30.558 21.1018 27.2176 31.5298 26.9454 32.3906C26.8465 31.5052 24.3969 12.789 24.3969 12.789C18.7059 12.789 15.6625 16.8224 14.0542 21.0772C14.0542 21.0772 9.99629 31.5298 9.64988 32.4151C9.62514 31.6035 9.0313 21.2002 9.0313 21.2002C8.68489 15.9862 3.8847 12.8136 0 12.8136L4.70122 41.1707C10.6644 41.1461 13.881 37.1372 15.5635 32.8824C15.5635 32.8824 19.1513 23.6596 19.2998 23.2415C19.3245 23.635 21.8731 41.1707 21.8731 41.1707C27.8609 41.1707 31.0776 37.4078 32.8096 33.3005L41.1976 12.8136C35.2839 12.8136 32.1663 16.8224 30.558 21.1018ZM86.552 12.1495C82.8653 12.1495 80.0445 14.1417 77.6692 17.0684V17.0438L79.7971 0C74.8979 0 70.9143 4.2302 70.1472 10.5263L66.4357 40.9493C69.2565 40.9493 72.2504 40.1377 73.8587 38.0718C75.2938 39.9164 77.4465 41.392 80.6384 41.392C88.9026 41.392 94.5689 31.8495 94.5689 22.8972C94.5194 14.7319 90.5357 12.1495 86.552 12.1495ZM85.785 26.7831C84.919 31.7757 82.123 35.1697 79.426 35.1697C76.7042 35.1697 75.5413 33.9646 75.5413 33.9646C76.0609 29.5868 76.3825 26.906 77.3723 24.5942C78.362 22.2823 80.7126 18.5932 83.1622 18.5932C85.5623 18.5932 86.651 21.7659 85.785 26.7831ZM115.205 12.8136H109.44L109.464 12.5184C109.86 8.78013 110.751 6.81259 113.695 6.49287C115.7 6.29611 116.59 5.26316 116.813 4.13182C116.986 3.24643 117.531 0.172159 117.531 0.172159C105.951 0.0983768 102.313 5.0664 101.373 12.6414L101.349 12.8136H101.225C99.3443 12.8136 97.2659 14.9287 96.9195 17.6094L96.7957 18.5932H100.656L97.4143 45.2041L96.4246 49.9754C96.5483 49.9754 96.6968 50 96.8205 50C102.239 49.8032 105.703 45.5485 106.47 39.3753L108.994 18.5932H110.8C112.582 18.5932 114.66 16.8224 115.032 13.8711L115.205 12.8136ZM145.194 12.3217C138.538 12.3217 132.253 17.1913 130.323 24.8401C128.393 32.4889 131.313 41.5396 141.111 41.5396C150.885 41.5396 156.526 32.12 156.526 24.2745C156.526 16.4781 151.206 12.3217 145.194 12.3217ZM147.891 26.5371C147.544 30.0049 146.01 35.2681 141.804 35.2681C137.573 35.2681 138.167 29.1195 138.587 26.1928C139.033 23.0694 140.789 18.6178 144.575 18.6178C147.965 18.6178 148.287 22.6267 147.891 26.5371ZM189.41 21.1018C189.41 21.1018 186.07 31.5298 185.797 32.3906C185.698 31.5052 183.249 12.789 183.249 12.789C177.558 12.789 174.514 16.8224 172.906 21.0772C172.906 21.0772 168.848 31.5298 168.502 32.4151C168.477 31.6035 167.883 21.2002 167.883 21.2002C167.537 15.9862 162.737 12.8136 158.852 12.8136L163.528 41.1707C169.492 41.1461 172.708 37.1372 174.391 32.8824C174.391 32.8824 177.978 23.6596 178.102 23.2415C178.152 23.635 180.675 41.1707 180.675 41.1707C186.663 41.1707 189.88 37.4078 191.612 33.3005L200 12.8136C194.111 12.8136 190.993 16.8224 189.41 21.1018ZM120.648 0.172159L115.799 39.0556L114.809 43.8515C114.933 43.8515 115.081 43.876 115.205 43.876C120.426 43.8023 124.137 39.2523 124.83 33.5219L127.626 11.215C128.467 4.40236 124.385 0.172159 120.648 0.172159Z" fill="black"/>
</g>
<defs>
<clipPath id="clip0_101_466">
<rect width="200" height="50" fill="white"/>
</clipPath>
</defs>
</svg>
