<svg width="125" height="50" viewBox="0 0 125 50" fill="none" xmlns="http://www.w3.org/2000/svg">
<g clip-path="url(#clip0_101_460)">
<path fill-rule="evenodd" clip-rule="evenodd" d="M0 0.0571429C0 0.0571429 4.92253 -0.578571 8.20422 2.39643C10.2289 4.23214 10.8187 7.15714 10.8187 7.15714L17.5211 33.8571L23.0933 12.0018C23.6373 9.67857 24.6144 6.80714 26.162 4.86429C28.1356 2.39107 32.1444 2.23571 32.5722 2.23571C32.9982 2.23571 37.007 2.39107 38.9789 4.86429C40.5282 6.80714 41.5053 9.67857 42.0493 12.0018L47.6215 33.8571L54.3222 7.15536C54.3222 7.15536 54.9137 4.23036 56.9384 2.39464C60.2201 -0.578571 65.1408 0.0571429 65.1408 0.0571429L52.3081 49.9589C52.3081 49.9589 48.0757 50.2732 45.9577 49.1625C43.1761 47.7054 41.8521 46.5786 40.1673 39.7893L39.993 39.0839C39.3785 36.5857 38.4384 32.6732 37.4859 28.7036L37.2007 27.5125L36.9155 26.3268C35.544 20.6161 34.2799 15.3571 34.0775 14.6893C33.8873 14.0625 33.662 12.5696 32.5722 12.5696C31.5035 12.5696 31.2588 14.0643 31.0634 14.6893C30.8345 15.425 29.3204 21.7518 27.7958 28.1071L27.5106 29.2982C26.7315 32.5621 25.9445 35.824 25.1496 39.0839L24.9736 39.7893C23.2905 46.5786 21.9665 47.7054 19.1849 49.1625C17.0651 50.2732 12.8327 49.9589 12.8327 49.9589L0 0.0571429ZM77.4613 8.92857V10.7054L77.4648 10.7036V40.3964C77.4401 46.4911 76.8081 47.8429 74.0616 49.2464C71.9261 50.3357 68.662 49.9232 68.662 49.9232V16.6643C68.662 14.9946 69.2166 13.9 71.2623 12.9179C72.4824 12.3304 73.6215 11.8821 74.8046 11.2161C76.6549 10.1839 77.4613 8.92857 77.4613 8.92857ZM80.9859 0.223214C80.9859 0.223214 87.8116 -0.978571 91.1919 2.2C93.3539 4.23571 95.7729 7.89643 95.7729 7.89643L101.724 16.7625C102.012 17.2232 102.389 17.7268 102.991 17.7268C103.595 17.7268 103.974 17.2232 104.262 16.7625L110.213 7.89643C110.213 7.89643 112.632 4.23571 114.794 2.2C118.174 -0.978571 125 0.223214 125 0.223214L108.827 25.0857L124.956 49.8732L124.9 49.8804C124.231 49.9607 117.794 50.6357 114.592 47.6196C112.428 45.5875 110.213 42.2768 110.213 42.2768L104.262 33.4125C103.974 32.9482 103.595 32.4482 102.993 32.4482C102.389 32.4482 102.012 32.9482 101.724 33.4125L95.7729 42.2768C95.7729 42.2768 93.6778 45.5875 91.5158 47.6196C88.1356 50.8036 81.0282 49.8732 81.0282 49.8732L97.1567 25.0875L80.9859 0.223214ZM77.3944 0H77.4648C77.4648 3.41071 77.1373 5.43214 75.0229 7.00536C74.0358 7.74159 72.9542 8.33757 71.8081 8.77679C69.9278 9.47143 68.662 10.7143 68.662 10.7143C68.662 4.50714 69.5951 2.26071 72.0951 0.928571C73.618 0.121429 76.0951 0.0107143 77.0599 0L77.3944 0Z" fill="black"/>
</g>
<defs>
<clipPath id="clip0_101_460">
<rect width="125" height="50" fill="white"/>
</clipPath>
</defs>
</svg>
