<svg width="223" height="50" viewBox="0 0 223 50" fill="none" xmlns="http://www.w3.org/2000/svg">
<g clip-path="url(#clip0_101_462)">
<path fill-rule="evenodd" clip-rule="evenodd" d="M181.57 14.9937C182.42 16.4611 182.699 18.1305 182.79 20.0074L182.911 22.5089V40.0016L183.035 42.5058C183.281 46.5954 186.297 49.6194 190.419 49.8766L192.91 50V22.5089L193.033 20.0074C193.135 18.1515 193.411 16.4506 194.275 14.9727C195.155 13.4569 196.418 12.1993 197.938 11.3261C199.457 10.4529 201.18 9.99494 202.933 9.99813C204.686 10.0013 206.407 10.4656 207.923 11.3443C209.44 12.223 210.699 13.4852 211.573 15.0042C212.423 16.4715 212.689 18.1725 212.791 20.0074L212.914 22.5011V40.0016L213.038 42.5058C213.295 46.6164 216.287 49.6404 220.422 49.8766L222.913 50V20.0074C222.913 14.7038 220.806 9.61741 217.057 5.86652C213.308 2.11562 208.222 0.00734503 202.919 0.00525693C200.08 0.00226335 197.273 0.60507 194.686 1.7734C192.099 2.94174 189.792 4.6487 187.917 6.78024C186.042 4.64954 183.734 2.94299 181.147 1.77431C178.56 0.60563 175.754 0.00165501 172.915 0.00263148C168.763 0.00263148 164.909 1.26261 161.717 3.43869C159.77 1.26523 155.412 0.00263148 152.911 0.00263148V50L155.412 49.8766C159.596 49.601 162.62 46.6584 162.783 42.5058L162.917 40.0016V22.5089L163.04 20.0074C163.145 18.12 163.408 16.4611 164.261 14.9832C165.142 13.4683 166.404 12.211 167.923 11.3368C169.442 10.4625 171.163 10.002 172.915 10.0011C174.669 10.0014 176.392 10.4629 177.911 11.3392C179.43 12.2155 180.692 13.4758 181.57 14.9937ZM10.4154 49.8792L12.917 50H50.4144L50.291 47.5063C49.9524 43.3956 47.0413 40.3927 42.9175 40.1249L40.4159 40.0016H17.9201L47.9128 9.99843L47.7894 7.50736C47.5952 3.35469 44.5607 0.354375 40.4159 0.126003L37.9144 0.0131311L0.416992 0.00263148L0.540365 2.50421C0.868483 6.5755 3.82155 9.64144 7.91122 9.87768L10.4154 10.0011H32.9112L2.91857 40.0042L3.04194 42.5058C3.28868 46.6269 6.26275 49.6115 10.4154 49.8766V49.8792ZM143.096 7.32098C145.418 9.64227 147.26 12.3982 148.516 15.4314C149.773 18.4645 150.419 21.7155 150.419 24.9987C150.419 28.2818 149.773 31.5328 148.516 34.566C147.26 37.5992 145.418 40.3551 143.096 42.6764C138.405 47.3634 132.045 49.9962 125.414 49.9962C118.783 49.9962 112.423 47.3634 107.733 42.6764C97.9705 32.9142 97.9705 17.0832 107.733 7.32098C110.052 5.00047 112.806 3.15959 115.838 1.90345C118.869 0.647309 122.118 0.000518192 125.399 6.02635e-06C128.685 -0.00227565 131.94 0.643376 134.976 1.90003C138.013 3.15668 140.772 4.99968 143.096 7.32361V7.32098ZM136.022 14.4005C138.834 17.2145 140.413 21.0298 140.413 25.0079C140.413 28.986 138.834 32.8013 136.022 35.6153C133.208 38.4272 129.392 40.0067 125.414 40.0067C121.436 40.0067 117.621 38.4272 114.807 35.6153C111.995 32.8013 110.416 28.986 110.416 25.0079C110.416 21.0298 111.995 17.2145 114.807 14.4005C117.621 11.5886 121.436 10.0091 125.414 10.0091C129.392 10.0091 133.208 11.5886 136.022 14.4005ZM72.9312 6.02635e-06C76.2124 0.000862925 79.4614 0.648067 82.4926 1.90466C85.5237 3.16125 88.2776 5.00262 90.5971 7.32361C100.362 17.0832 100.362 32.9168 90.5971 42.6764C85.9063 47.3634 79.5465 49.9962 72.9154 49.9962C66.2843 49.9962 59.9245 47.3634 55.2338 42.6764C45.4716 32.9142 45.4716 17.0832 55.2338 7.32098C57.5534 5.00047 60.3074 3.15959 63.3386 1.90345C66.3697 0.647309 69.6186 0.000518192 72.8997 6.02635e-06H72.9312ZM83.5228 14.3952C86.3355 17.2093 87.9155 21.0252 87.9155 25.0039C87.9155 28.9827 86.3355 32.7986 83.5228 35.6127C80.7088 38.4245 76.8935 40.004 72.9154 40.004C68.9373 40.004 65.122 38.4245 62.308 35.6127C59.4961 32.7987 57.9166 28.9833 57.9166 25.0053C57.9166 21.0272 59.4961 17.2118 62.308 14.3978C65.122 11.586 68.9373 10.0065 72.9154 10.0065C76.8935 10.0065 80.7088 11.586 83.5228 14.3978V14.3952Z" fill="#2D8CFF"/>
</g>
<defs>
<clipPath id="clip0_101_462">
<rect width="222.496" height="50" fill="white" transform="translate(0.416992)"/>
</clipPath>
</defs>
</svg>
